<mxfile host="Electron" modified="2024-05-07T09:38:49.385Z" agent="Mozilla/5.0 (Windows NT 10.0; Win64; x64) AppleWebKit/537.36 (KHTML, like Gecko) draw.io/24.2.5 Chrome/120.0.6099.109 Electron/28.1.0 Safari/537.36" etag="AaCVVjEZxDimeB7XXDQk" version="24.2.5" type="device">
  <diagram name="Pagina-1" id="Pmhb-Fc5OliE28mncN0t">
    <mxGraphModel dx="1445" dy="365" grid="1" gridSize="10" guides="1" tooltips="1" connect="1" arrows="1" fold="1" page="1" pageScale="1" pageWidth="827" pageHeight="1169" math="0" shadow="0">
      <root>
        <mxCell id="0" />
        <mxCell id="1" parent="0" />
        <mxCell id="BWZB3NNpC9M_mQLOT0TE-2" value="&lt;font style=&quot;font-size: 8px;&quot;&gt;Esperienza&lt;/font&gt;" style="text;html=1;align=center;verticalAlign=middle;whiteSpace=wrap;rounded=1;strokeColor=none;" vertex="1" parent="1">
          <mxGeometry x="-587.7299999999999" y="842.06" width="49" height="23" as="geometry" />
        </mxCell>
        <mxCell id="BWZB3NNpC9M_mQLOT0TE-3" style="edgeStyle=orthogonalEdgeStyle;rounded=0;orthogonalLoop=1;jettySize=auto;html=1;exitX=0;exitY=0.25;exitDx=0;exitDy=0;endArrow=oval;endFill=1;" edge="1" parent="1">
          <mxGeometry relative="1" as="geometry">
            <mxPoint x="-538.2299999999999" y="844" as="targetPoint" />
            <mxPoint x="-518.2299999999999" y="843.77" as="sourcePoint" />
            <Array as="points">
              <mxPoint x="-528.2299999999999" y="844" />
            </Array>
          </mxGeometry>
        </mxCell>
        <mxCell id="BWZB3NNpC9M_mQLOT0TE-4" value="&lt;font style=&quot;font-size: 8px;&quot;&gt;Nickname&lt;/font&gt;" style="text;html=1;align=center;verticalAlign=middle;whiteSpace=wrap;rounded=1;strokeColor=none;" vertex="1" parent="1">
          <mxGeometry x="-578.2299999999999" y="830" width="30" height="23.5" as="geometry" />
        </mxCell>
        <mxCell id="BWZB3NNpC9M_mQLOT0TE-5" value="&lt;font style=&quot;font-size: 8px;&quot;&gt;Argomento&lt;/font&gt;" style="text;html=1;align=center;verticalAlign=middle;whiteSpace=wrap;rounded=1;strokeColor=none;" vertex="1" parent="1">
          <mxGeometry x="-193.89999999999998" y="1002" width="40" height="19" as="geometry" />
        </mxCell>
        <mxCell id="BWZB3NNpC9M_mQLOT0TE-6" style="edgeStyle=orthogonalEdgeStyle;rounded=0;orthogonalLoop=1;jettySize=auto;html=1;exitX=0.5;exitY=1;exitDx=0;exitDy=0;" edge="1" parent="1">
          <mxGeometry relative="1" as="geometry">
            <mxPoint x="-559.9999999999999" y="976.9" as="sourcePoint" />
            <mxPoint x="-559.9999999999999" y="976.9" as="targetPoint" />
          </mxGeometry>
        </mxCell>
        <mxCell id="BWZB3NNpC9M_mQLOT0TE-7" style="edgeStyle=orthogonalEdgeStyle;rounded=0;orthogonalLoop=1;jettySize=auto;html=1;exitX=0.5;exitY=1;exitDx=0;exitDy=0;" edge="1" parent="1">
          <mxGeometry relative="1" as="geometry">
            <mxPoint x="-354.4" y="970.0899999999999" as="sourcePoint" />
            <mxPoint x="-354.4" y="970.0899999999999" as="targetPoint" />
          </mxGeometry>
        </mxCell>
        <mxCell id="BWZB3NNpC9M_mQLOT0TE-8" style="edgeStyle=orthogonalEdgeStyle;rounded=0;orthogonalLoop=1;jettySize=auto;html=1;exitX=0.5;exitY=1;exitDx=0;exitDy=0;" edge="1" parent="1">
          <mxGeometry relative="1" as="geometry">
            <mxPoint x="-336.4" y="969.18" as="sourcePoint" />
            <mxPoint x="-336.4" y="969.18" as="targetPoint" />
          </mxGeometry>
        </mxCell>
        <mxCell id="BWZB3NNpC9M_mQLOT0TE-9" value="&lt;font style=&quot;font-size: 8px;&quot;&gt;(0,N)&lt;/font&gt;" style="text;html=1;align=center;verticalAlign=middle;whiteSpace=wrap;rounded=1;strokeColor=none;glass=0;" vertex="1" parent="1">
          <mxGeometry x="-349.13" y="980.8799999999999" width="22.5" height="6.75" as="geometry" />
        </mxCell>
        <mxCell id="BWZB3NNpC9M_mQLOT0TE-10" value="A-I" style="shape=rhombus;perimeter=rhombusPerimeter;whiteSpace=wrap;html=1;align=center;" vertex="1" parent="1">
          <mxGeometry x="-519.43" y="908.1299999999999" width="73.56" height="42.36" as="geometry" />
        </mxCell>
        <mxCell id="BWZB3NNpC9M_mQLOT0TE-11" value="" style="endArrow=none;html=1;rounded=0;entryX=1;entryY=0.5;entryDx=0;entryDy=0;" edge="1" parent="1" target="BWZB3NNpC9M_mQLOT0TE-40">
          <mxGeometry width="50" height="50" relative="1" as="geometry">
            <mxPoint x="-290.9" y="1001" as="sourcePoint" />
            <mxPoint x="-544.0199999999999" y="999.93" as="targetPoint" />
          </mxGeometry>
        </mxCell>
        <mxCell id="BWZB3NNpC9M_mQLOT0TE-12" value="I-C" style="shape=rhombus;perimeter=rhombusPerimeter;whiteSpace=wrap;html=1;align=center;" vertex="1" parent="1">
          <mxGeometry x="-405.4" y="980.8799999999999" width="70" height="39.81" as="geometry" />
        </mxCell>
        <mxCell id="BWZB3NNpC9M_mQLOT0TE-13" value="&lt;span style=&quot;font-size: 8px;&quot;&gt;(1,1)&lt;/span&gt;" style="text;html=1;align=center;verticalAlign=middle;whiteSpace=wrap;rounded=1;strokeColor=none;glass=0;" vertex="1" parent="1">
          <mxGeometry x="-480.7299999999999" y="950.49" width="22.5" height="6.75" as="geometry" />
        </mxCell>
        <mxCell id="BWZB3NNpC9M_mQLOT0TE-14" value="&lt;span style=&quot;font-size: 8px;&quot;&gt;(1,1)&lt;/span&gt;" style="text;html=1;align=center;verticalAlign=middle;whiteSpace=wrap;rounded=1;strokeColor=none;glass=0;" vertex="1" parent="1">
          <mxGeometry x="-414.8599999999998" y="980.91" width="22.5" height="6.75" as="geometry" />
        </mxCell>
        <mxCell id="BWZB3NNpC9M_mQLOT0TE-15" style="edgeStyle=orthogonalEdgeStyle;rounded=0;orthogonalLoop=1;jettySize=auto;html=1;exitX=0.5;exitY=0;exitDx=0;exitDy=0;entryX=0.842;entryY=1.009;entryDx=0;entryDy=0;entryPerimeter=0;endArrow=oval;endFill=1;" edge="1" parent="1" source="BWZB3NNpC9M_mQLOT0TE-39">
          <mxGeometry relative="1" as="geometry">
            <mxPoint x="-443.9" y="987.62" as="sourcePoint" />
            <mxPoint x="-440.9" y="974.62" as="targetPoint" />
          </mxGeometry>
        </mxCell>
        <mxCell id="BWZB3NNpC9M_mQLOT0TE-16" value="&lt;font style=&quot;font-size: 8px;&quot;&gt;(0,N)&lt;/font&gt;" style="text;html=1;align=center;verticalAlign=middle;whiteSpace=wrap;rounded=1;strokeColor=none;glass=0;" vertex="1" parent="1">
          <mxGeometry x="-480.7299999999999" y="899.34" width="22.5" height="8.79" as="geometry" />
        </mxCell>
        <mxCell id="BWZB3NNpC9M_mQLOT0TE-70" style="edgeStyle=orthogonalEdgeStyle;rounded=0;orthogonalLoop=1;jettySize=auto;html=1;exitX=0.5;exitY=1;exitDx=0;exitDy=0;entryX=0.5;entryY=0;entryDx=0;entryDy=0;endArrow=none;endFill=0;" edge="1" parent="1" source="BWZB3NNpC9M_mQLOT0TE-21" target="BWZB3NNpC9M_mQLOT0TE-51">
          <mxGeometry relative="1" as="geometry" />
        </mxCell>
        <mxCell id="BWZB3NNpC9M_mQLOT0TE-21" value="I-A" style="shape=rhombus;perimeter=rhombusPerimeter;whiteSpace=wrap;html=1;align=center;" vertex="1" parent="1">
          <mxGeometry x="-517.05" y="1061.09" width="70" height="39.81" as="geometry" />
        </mxCell>
        <mxCell id="BWZB3NNpC9M_mQLOT0TE-22" value="&lt;span style=&quot;font-size: 8px;&quot;&gt;(1,1)&lt;/span&gt;" style="text;html=1;align=center;verticalAlign=middle;whiteSpace=wrap;rounded=1;strokeColor=none;glass=0;" vertex="1" parent="1">
          <mxGeometry x="-482.2599999999999" y="1050.9300000000003" width="22.5" height="6.75" as="geometry" />
        </mxCell>
        <mxCell id="BWZB3NNpC9M_mQLOT0TE-23" value="&lt;font style=&quot;font-size: 8px;&quot;&gt;(0,N)&lt;/font&gt;" style="text;html=1;align=center;verticalAlign=middle;whiteSpace=wrap;rounded=1;strokeColor=none;glass=0;" vertex="1" parent="1">
          <mxGeometry x="-480.73" y="1096.53" width="22.5" height="8.79" as="geometry" />
        </mxCell>
        <mxCell id="BWZB3NNpC9M_mQLOT0TE-26" style="edgeStyle=orthogonalEdgeStyle;rounded=0;orthogonalLoop=1;jettySize=auto;html=1;exitX=0;exitY=0.25;exitDx=0;exitDy=0;endArrow=oval;endFill=0;" edge="1" parent="1">
          <mxGeometry relative="1" as="geometry">
            <mxPoint x="-538.2299999999999" y="855.4200000000001" as="targetPoint" />
            <mxPoint x="-518.2299999999999" y="855.19" as="sourcePoint" />
            <Array as="points">
              <mxPoint x="-528.2299999999999" y="855.4200000000001" />
            </Array>
          </mxGeometry>
        </mxCell>
        <mxCell id="BWZB3NNpC9M_mQLOT0TE-31" value="Avatar" style="whiteSpace=wrap;html=1;align=center;" vertex="1" parent="1">
          <mxGeometry x="-518.2299999999999" y="834" width="60" height="30" as="geometry" />
        </mxCell>
        <mxCell id="BWZB3NNpC9M_mQLOT0TE-34" value="&lt;font style=&quot;font-size: 9px;&quot;&gt;Codice&lt;/font&gt;" style="text;html=1;align=center;verticalAlign=middle;whiteSpace=wrap;rounded=0;" vertex="1" parent="1">
          <mxGeometry x="-462.23" y="953.95" width="42.67" height="20.03" as="geometry" />
        </mxCell>
        <mxCell id="BWZB3NNpC9M_mQLOT0TE-35" value="&lt;font style=&quot;font-size: 8px;&quot;&gt;Ora&lt;/font&gt;" style="text;html=1;align=center;verticalAlign=middle;whiteSpace=wrap;rounded=1;strokeColor=none;glass=0;" vertex="1" parent="1">
          <mxGeometry x="-409.17999999999995" y="1039.43" width="30" height="11.5" as="geometry" />
        </mxCell>
        <mxCell id="BWZB3NNpC9M_mQLOT0TE-36" style="edgeStyle=orthogonalEdgeStyle;rounded=0;orthogonalLoop=1;jettySize=auto;html=1;exitX=1;exitY=1;exitDx=0;exitDy=0;endArrow=oval;endFill=0;" edge="1" parent="1">
          <mxGeometry relative="1" as="geometry">
            <mxPoint x="-428.3536200771092" y="1046.503264551872" as="sourcePoint" />
            <mxPoint x="-407.17999999999995" y="1046.3600000000001" as="targetPoint" />
          </mxGeometry>
        </mxCell>
        <mxCell id="BWZB3NNpC9M_mQLOT0TE-37" value="&lt;font style=&quot;font-size: 8px;&quot;&gt;Data&lt;/font&gt;" style="text;html=1;align=center;verticalAlign=middle;whiteSpace=wrap;rounded=1;strokeColor=none;glass=0;" vertex="1" parent="1">
          <mxGeometry x="-409.17999999999995" y="1030.56" width="30" height="6.5" as="geometry" />
        </mxCell>
        <mxCell id="BWZB3NNpC9M_mQLOT0TE-38" style="edgeStyle=orthogonalEdgeStyle;rounded=0;orthogonalLoop=1;jettySize=auto;html=1;exitX=1;exitY=0;exitDx=0;exitDy=0;entryX=0.086;entryY=0.404;entryDx=0;entryDy=0;entryPerimeter=0;endArrow=oval;endFill=0;" edge="1" parent="1" source="BWZB3NNpC9M_mQLOT0TE-39" target="BWZB3NNpC9M_mQLOT0TE-37">
          <mxGeometry relative="1" as="geometry" />
        </mxCell>
        <mxCell id="BWZB3NNpC9M_mQLOT0TE-39" value="&lt;p style=&quot;line-height: 110%;&quot;&gt;&lt;font style=&quot;font-size: 7px;&quot;&gt;Data&lt;/font&gt;&lt;/p&gt;" style="ellipse;whiteSpace=wrap;html=1;" vertex="1" parent="1">
          <mxGeometry x="-459.17999999999995" y="1030.93" width="36.12" height="20" as="geometry" />
        </mxCell>
        <mxCell id="BWZB3NNpC9M_mQLOT0TE-40" value="InterazioneAvatar" style="whiteSpace=wrap;html=1;align=center;" vertex="1" parent="1">
          <mxGeometry x="-524.41" y="987.63" width="103" height="26.28" as="geometry" />
        </mxCell>
        <mxCell id="BWZB3NNpC9M_mQLOT0TE-41" value="&lt;font style=&quot;font-size: 9px;&quot;&gt;Codice&lt;/font&gt;" style="text;html=1;align=center;verticalAlign=middle;whiteSpace=wrap;rounded=0;" vertex="1" parent="1">
          <mxGeometry x="-282.4" y="951.6700000000001" width="42.67" height="17.9" as="geometry" />
        </mxCell>
        <mxCell id="BWZB3NNpC9M_mQLOT0TE-42" style="edgeStyle=orthogonalEdgeStyle;rounded=0;orthogonalLoop=1;jettySize=auto;html=1;exitX=0.75;exitY=0;exitDx=0;exitDy=0;endArrow=oval;endFill=1;" edge="1" parent="1">
          <mxGeometry relative="1" as="geometry">
            <mxPoint x="-258.2800000000001" y="987.58" as="sourcePoint" />
            <mxPoint x="-260.2800000000001" y="971.58" as="targetPoint" />
          </mxGeometry>
        </mxCell>
        <mxCell id="BWZB3NNpC9M_mQLOT0TE-43" value="&lt;font style=&quot;font-size: 8px;&quot;&gt;Tema&lt;/font&gt;&lt;div style=&quot;line-height: 50%;&quot;&gt;&lt;font style=&quot;font-size: 8px;&quot;&gt;Storico&lt;/font&gt;&lt;/div&gt;" style="text;html=1;align=center;verticalAlign=middle;whiteSpace=wrap;rounded=1;strokeColor=none;" vertex="1" parent="1">
          <mxGeometry x="-297.66999999999996" y="1081.35" width="40" height="20" as="geometry" />
        </mxCell>
        <mxCell id="BWZB3NNpC9M_mQLOT0TE-49" value="&lt;font style=&quot;font-size: 9px;&quot;&gt;Codice&lt;/font&gt;" style="text;html=1;align=center;verticalAlign=middle;whiteSpace=wrap;rounded=0;" vertex="1" parent="1">
          <mxGeometry x="-465.9000000000001" y="1102.1100000000001" width="42.67" height="20.03" as="geometry" />
        </mxCell>
        <mxCell id="BWZB3NNpC9M_mQLOT0TE-50" style="edgeStyle=orthogonalEdgeStyle;rounded=0;orthogonalLoop=1;jettySize=auto;html=1;exitX=0.75;exitY=0;exitDx=0;exitDy=0;endArrow=oval;endFill=1;" edge="1" parent="1">
          <mxGeometry relative="1" as="geometry">
            <mxPoint x="-451.0000000000001" y="1138.14" as="sourcePoint" />
            <mxPoint x="-453.0000000000001" y="1122.14" as="targetPoint" />
          </mxGeometry>
        </mxCell>
        <mxCell id="BWZB3NNpC9M_mQLOT0TE-51" value="Azione" style="whiteSpace=wrap;html=1;align=center;" vertex="1" parent="1">
          <mxGeometry x="-510.9999999999999" y="1129.9999999999998" width="60" height="30" as="geometry" />
        </mxCell>
        <mxCell id="BWZB3NNpC9M_mQLOT0TE-55" style="edgeStyle=orthogonalEdgeStyle;rounded=0;orthogonalLoop=1;jettySize=auto;html=1;exitX=1.002;exitY=0.482;exitDx=0;exitDy=0;endArrow=oval;endFill=0;entryX=-0.112;entryY=0.718;entryDx=0;entryDy=0;entryPerimeter=0;exitPerimeter=0;" edge="1" parent="1">
          <mxGeometry relative="1" as="geometry">
            <mxPoint x="-224.28999999999996" y="1014.0336600000003" as="sourcePoint" />
            <mxPoint x="-201.04999999999995" y="1013.9100000000001" as="targetPoint" />
            <Array as="points">
              <mxPoint x="-211.03999999999996" y="1013.9100000000001" />
            </Array>
          </mxGeometry>
        </mxCell>
        <mxCell id="BWZB3NNpC9M_mQLOT0TE-56" value="Conversazione" style="whiteSpace=wrap;html=1;align=center;" vertex="1" parent="1">
          <mxGeometry x="-301.9" y="982.95" width="83" height="35.63" as="geometry" />
        </mxCell>
        <mxCell id="BWZB3NNpC9M_mQLOT0TE-57" style="edgeStyle=orthogonalEdgeStyle;rounded=0;orthogonalLoop=1;jettySize=auto;html=1;exitX=1;exitY=0.5;exitDx=0;exitDy=0;entryX=0.25;entryY=1;entryDx=0;entryDy=0;endArrow=oval;endFill=0;" edge="1" parent="1">
          <mxGeometry relative="1" as="geometry">
            <mxPoint x="-219.18000000000018" y="1060.835" as="sourcePoint" />
            <mxPoint x="-183.18000000000018" y="1053.21" as="targetPoint" />
          </mxGeometry>
        </mxCell>
        <mxCell id="BWZB3NNpC9M_mQLOT0TE-58" value="" style="shape=singleArrow;direction=north;whiteSpace=wrap;html=1;arrowWidth=0.3808905843098993;arrowSize=0.6576580700573631;" vertex="1" parent="1">
          <mxGeometry x="-276.06000000000006" y="1018.5799999999999" width="30" height="18" as="geometry" />
        </mxCell>
        <mxCell id="BWZB3NNpC9M_mQLOT0TE-59" value="Discussione Virtuale" style="whiteSpace=wrap;html=1;align=center;" vertex="1" parent="1">
          <mxGeometry x="-362.30999999999995" y="1049.84" width="81.41" height="30.16" as="geometry" />
        </mxCell>
        <mxCell id="BWZB3NNpC9M_mQLOT0TE-60" value="NuovaTeoria" style="whiteSpace=wrap;html=1;align=center;" vertex="1" parent="1">
          <mxGeometry x="-237.31000000000006" y="1049.84" width="77.5" height="20" as="geometry" />
        </mxCell>
        <mxCell id="BWZB3NNpC9M_mQLOT0TE-61" value="" style="endArrow=none;html=1;rounded=0;exitX=0.475;exitY=0.003;exitDx=0;exitDy=0;exitPerimeter=0;" edge="1" parent="1" source="BWZB3NNpC9M_mQLOT0TE-59">
          <mxGeometry width="50" height="50" relative="1" as="geometry">
            <mxPoint x="-380.44000000000005" y="1041.71" as="sourcePoint" />
            <mxPoint x="-323.44000000000005" y="1036.71" as="targetPoint" />
          </mxGeometry>
        </mxCell>
        <mxCell id="BWZB3NNpC9M_mQLOT0TE-62" value="" style="endArrow=none;html=1;rounded=0;" edge="1" parent="1">
          <mxGeometry width="50" height="50" relative="1" as="geometry">
            <mxPoint x="-323.94000000000005" y="1036.71" as="sourcePoint" />
            <mxPoint x="-199.94000000000017" y="1036.71" as="targetPoint" />
          </mxGeometry>
        </mxCell>
        <mxCell id="BWZB3NNpC9M_mQLOT0TE-63" value="" style="endArrow=none;html=1;rounded=0;entryX=0.476;entryY=-0.004;entryDx=0;entryDy=0;entryPerimeter=0;" edge="1" parent="1" target="BWZB3NNpC9M_mQLOT0TE-60">
          <mxGeometry width="50" height="50" relative="1" as="geometry">
            <mxPoint x="-200.44000000000017" y="1036.71" as="sourcePoint" />
            <mxPoint x="-120.44000000000005" y="991.71" as="targetPoint" />
          </mxGeometry>
        </mxCell>
        <mxCell id="BWZB3NNpC9M_mQLOT0TE-64" style="edgeStyle=orthogonalEdgeStyle;rounded=0;orthogonalLoop=1;jettySize=auto;html=1;exitX=0.75;exitY=1;exitDx=0;exitDy=0;entryX=0.578;entryY=0.124;entryDx=0;entryDy=0;entryPerimeter=0;endArrow=oval;endFill=0;" edge="1" parent="1">
          <mxGeometry relative="1" as="geometry">
            <mxPoint x="-293.39" y="1080" as="sourcePoint" />
            <mxPoint x="-293.2700000000001" y="1090.4688482490274" as="targetPoint" />
          </mxGeometry>
        </mxCell>
        <mxCell id="BWZB3NNpC9M_mQLOT0TE-66" style="edgeStyle=orthogonalEdgeStyle;rounded=0;orthogonalLoop=1;jettySize=auto;html=1;exitX=0.5;exitY=0;exitDx=0;exitDy=0;entryX=0.588;entryY=0.995;entryDx=0;entryDy=0;entryPerimeter=0;endArrow=none;endFill=0;" edge="1" parent="1" source="BWZB3NNpC9M_mQLOT0TE-10" target="BWZB3NNpC9M_mQLOT0TE-31">
          <mxGeometry relative="1" as="geometry" />
        </mxCell>
        <mxCell id="BWZB3NNpC9M_mQLOT0TE-68" style="edgeStyle=orthogonalEdgeStyle;rounded=0;orthogonalLoop=1;jettySize=auto;html=1;exitX=0.5;exitY=1;exitDx=0;exitDy=0;entryX=0.418;entryY=0.005;entryDx=0;entryDy=0;entryPerimeter=0;endArrow=none;endFill=0;" edge="1" parent="1" source="BWZB3NNpC9M_mQLOT0TE-10" target="BWZB3NNpC9M_mQLOT0TE-40">
          <mxGeometry relative="1" as="geometry" />
        </mxCell>
        <mxCell id="BWZB3NNpC9M_mQLOT0TE-69" style="edgeStyle=orthogonalEdgeStyle;rounded=0;orthogonalLoop=1;jettySize=auto;html=1;exitX=0.5;exitY=0;exitDx=0;exitDy=0;entryX=0.412;entryY=0.948;entryDx=0;entryDy=0;entryPerimeter=0;endArrow=none;endFill=0;" edge="1" parent="1" source="BWZB3NNpC9M_mQLOT0TE-21" target="BWZB3NNpC9M_mQLOT0TE-40">
          <mxGeometry relative="1" as="geometry" />
        </mxCell>
      </root>
    </mxGraphModel>
  </diagram>
</mxfile>
